# SYNTHETIC TEST FIXTURE - not BodyParts3D data (mixed face formats: quads, v, v/t, v//n, v/t/n, negative indices)
# BodyParts3D, (C) The Database Center for Life Science licensed under CC Attribution-Share Alike 2.1 Japan
# FJ ID: FJ9009
# FMA ID: FMA9900009
# English name: right biceps brachii
o FJ9009
g element
v -180 -30 1050
v -160 -30 1050
v -160 -10 1050
v -180 -10 1050
v -180 -30 1250
v -160 -30 1250
v -160 -10 1250
v -180 -10 1250
vt 0 0
vt 1 0
vt 1 1
vt 0 1
vn 0 0 -1
vn 0 0 1
vn 0 -1 0
vn 0 1 0
vn -1 0 0
vn 1 0 0
s 1
usemtl default
f 1/1/1 4/4/1 3/3/1 2/2/1
f -4/1/-5 -3/2/-5 -2/3/-5 -1/4/-5
f 1/1/3 2/2/3 6/3/3 5/4/3
f 4//4 8//4 7//4 3//4
f 1/1 5/2 8/3 4/4
f 2 3 7 6
