# SYNTHETIC TEST FIXTURE - not BodyParts3D data (mimics the BP3D 4.0 OBJ layout)
# BodyParts3D, (C) The Database Center for Life Science licensed under CC Attribution-Share Alike 2.1 Japan
# FJ9007
# FMA9900007
# left incus
v 60 0 1603
v 60 0 1603
v 60 0 1603
v 60 0 1603
v 60 0 1603
v 60 0 1603
v 60 0 1603
v 60 0 1603
v 60 0 1603
v 61.5 0 1602.5981
v 61.0607 1.0607 1602.5981
v 60 1.5 1602.5981
v 58.9393 1.0607 1602.5981
v 58.5 0 1602.5981
v 58.9393 -1.0607 1602.5981
v 60 -1.5 1602.5981
v 61.0607 -1.0607 1602.5981
v 61.5 0 1602.5981
v 62.5981 0 1601.5
v 61.8371 1.8371 1601.5
v 60 2.5981 1601.5
v 58.1629 1.8371 1601.5
v 57.4019 0 1601.5
v 58.1629 -1.8371 1601.5
v 60 -2.5981 1601.5
v 61.8371 -1.8371 1601.5
v 62.5981 0 1601.5
v 63 0 1600
v 62.1213 2.1213 1600
v 60 3 1600
v 57.8787 2.1213 1600
v 57 0 1600
v 57.8787 -2.1213 1600
v 60 -3 1600
v 62.1213 -2.1213 1600
v 63 0 1600
v 62.5981 0 1598.5
v 61.8371 1.8371 1598.5
v 60 2.5981 1598.5
v 58.1629 1.8371 1598.5
v 57.4019 0 1598.5
v 58.1629 -1.8371 1598.5
v 60 -2.5981 1598.5
v 61.8371 -1.8371 1598.5
v 62.5981 0 1598.5
v 61.5 0 1597.4019
v 61.0607 1.0607 1597.4019
v 60 1.5 1597.4019
v 58.9393 1.0607 1597.4019
v 58.5 0 1597.4019
v 58.9393 -1.0607 1597.4019
v 60 -1.5 1597.4019
v 61.0607 -1.0607 1597.4019
v 61.5 0 1597.4019
v 60 0 1597
v 60 0 1597
v 60 0 1597
v 60 0 1597
v 60 0 1597
v 60 0 1597
v 60 0 1597
v 60 0 1597
v 60 0 1597
vn 0 0 1
vn 0 0 1
vn 0 0 1
vn 0 0 1
vn 0 0 1
vn 0 0 1
vn 0 0 1
vn 0 0 1
vn 0 0 1
vn 0.5 0 0.866
vn 0.3536 0.3536 0.866
vn 0 0.5 0.866
vn -0.3536 0.3536 0.866
vn -0.5 0 0.866
vn -0.3536 -0.3536 0.866
vn 0 -0.5 0.866
vn 0.3536 -0.3536 0.866
vn 0.5 0 0.866
vn 0.866 0 0.5
vn 0.6124 0.6124 0.5
vn 0 0.866 0.5
vn -0.6124 0.6124 0.5
vn -0.866 0 0.5
vn -0.6124 -0.6124 0.5
vn 0 -0.866 0.5
vn 0.6124 -0.6124 0.5
vn 0.866 0 0.5
vn 1 0 0
vn 0.7071 0.7071 0
vn 0 1 0
vn -0.7071 0.7071 0
vn -1 0 0
vn -0.7071 -0.7071 0
vn 0 -1 0
vn 0.7071 -0.7071 0
vn 1 0 0
vn 0.866 0 -0.5
vn 0.6124 0.6124 -0.5
vn 0 0.866 -0.5
vn -0.6124 0.6124 -0.5
vn -0.866 0 -0.5
vn -0.6124 -0.6124 -0.5
vn 0 -0.866 -0.5
vn 0.6124 -0.6124 -0.5
vn 0.866 0 -0.5
vn 0.5 0 -0.866
vn 0.3536 0.3536 -0.866
vn 0 0.5 -0.866
vn -0.3536 0.3536 -0.866
vn -0.5 0 -0.866
vn -0.3536 -0.3536 -0.866
vn 0 -0.5 -0.866
vn 0.3536 -0.3536 -0.866
vn 0.5 0 -0.866
vn 0 0 -1
vn 0 0 -1
vn 0 0 -1
vn 0 0 -1
vn 0 0 -1
vn 0 0 -1
vn 0 0 -1
vn 0 0 -1
vn 0 0 -1
f 1//1 10//10 2//2
f 2//2 10//10 11//11
f 2//2 11//11 3//3
f 3//3 11//11 12//12
f 3//3 12//12 4//4
f 4//4 12//12 13//13
f 4//4 13//13 5//5
f 5//5 13//13 14//14
f 5//5 14//14 6//6
f 6//6 14//14 15//15
f 6//6 15//15 7//7
f 7//7 15//15 16//16
f 7//7 16//16 8//8
f 8//8 16//16 17//17
f 8//8 17//17 9//9
f 9//9 17//17 18//18
f 10//10 19//19 11//11
f 11//11 19//19 20//20
f 11//11 20//20 12//12
f 12//12 20//20 21//21
f 12//12 21//21 13//13
f 13//13 21//21 22//22
f 13//13 22//22 14//14
f 14//14 22//22 23//23
f 14//14 23//23 15//15
f 15//15 23//23 24//24
f 15//15 24//24 16//16
f 16//16 24//24 25//25
f 16//16 25//25 17//17
f 17//17 25//25 26//26
f 17//17 26//26 18//18
f 18//18 26//26 27//27
f 19//19 28//28 20//20
f 20//20 28//28 29//29
f 20//20 29//29 21//21
f 21//21 29//29 30//30
f 21//21 30//30 22//22
f 22//22 30//30 31//31
f 22//22 31//31 23//23
f 23//23 31//31 32//32
f 23//23 32//32 24//24
f 24//24 32//32 33//33
f 24//24 33//33 25//25
f 25//25 33//33 34//34
f 25//25 34//34 26//26
f 26//26 34//34 35//35
f 26//26 35//35 27//27
f 27//27 35//35 36//36
f 28//28 37//37 29//29
f 29//29 37//37 38//38
f 29//29 38//38 30//30
f 30//30 38//38 39//39
f 30//30 39//39 31//31
f 31//31 39//39 40//40
f 31//31 40//40 32//32
f 32//32 40//40 41//41
f 32//32 41//41 33//33
f 33//33 41//41 42//42
f 33//33 42//42 34//34
f 34//34 42//42 43//43
f 34//34 43//43 35//35
f 35//35 43//43 44//44
f 35//35 44//44 36//36
f 36//36 44//44 45//45
f 37//37 46//46 38//38
f 38//38 46//46 47//47
f 38//38 47//47 39//39
f 39//39 47//47 48//48
f 39//39 48//48 40//40
f 40//40 48//48 49//49
f 40//40 49//49 41//41
f 41//41 49//49 50//50
f 41//41 50//50 42//42
f 42//42 50//50 51//51
f 42//42 51//51 43//43
f 43//43 51//51 52//52
f 43//43 52//52 44//44
f 44//44 52//52 53//53
f 44//44 53//53 45//45
f 45//45 53//53 54//54
f 46//46 55//55 47//47
f 47//47 55//55 56//56
f 47//47 56//56 48//48
f 48//48 56//56 57//57
f 48//48 57//57 49//49
f 49//49 57//57 58//58
f 49//49 58//58 50//50
f 50//50 58//58 59//59
f 50//50 59//59 51//51
f 51//51 59//59 60//60
f 51//51 60//60 52//52
f 52//52 60//60 61//61
f 52//52 61//61 53//53
f 53//53 61//61 62//62
f 53//53 62//62 54//54
f 54//54 62//62 63//63
