# SYNTHETIC TEST FIXTURE - not BodyParts3D data (mimics the BP3D 4.0 OBJ layout)
# BodyParts3D, (C) The Database Center for Life Science licensed under CC Attribution-Share Alike 2.1 Japan
# FJ9001
# FMA9900001
# left humerus
v 145 -10 1000
v 165 -10 1000
v 145 10 1000
v 165 10 1000
v 145 -10 1300
v 165 -10 1300
v 145 10 1300
v 165 10 1300
vn -0.0664 -0.0664 -0.9956
vn 0.0664 -0.0664 -0.9956
vn -0.0664 0.0664 -0.9956
vn 0.0664 0.0664 -0.9956
vn -0.0664 -0.0664 0.9956
vn 0.0664 -0.0664 0.9956
vn -0.0664 0.0664 0.9956
vn 0.0664 0.0664 0.9956
f 1//1 4//4 2//2
f 1//1 3//3 4//4
f 5//5 6//6 8//8
f 5//5 8//8 7//7
f 1//1 2//2 6//6
f 1//1 6//6 5//5
f 3//3 8//8 4//4
f 3//3 7//7 8//8
f 1//1 7//7 3//3
f 1//1 5//5 7//7
f 2//2 4//4 8//8
f 2//2 8//8 6//6
