# SYNTHETIC TEST FIXTURE - not BodyParts3D data (mimics the BP3D 4.0 OBJ layout)
# BodyParts3D, (C) The Database Center for Life Science licensed under CC Attribution-Share Alike 2.1 Japan
# FJ9012
# FMA9900012
# right kidney
v -55 20 940
v -35 20 940
v -55 50 940
v -35 50 940
v -55 20 1040
v -35 20 1040
v -55 50 1040
v -35 50 1040
vn -0.1881 -0.2822 -0.9407
vn 0.1881 -0.2822 -0.9407
vn -0.1881 0.2822 -0.9407
vn 0.1881 0.2822 -0.9407
vn -0.1881 -0.2822 0.9407
vn 0.1881 -0.2822 0.9407
vn -0.1881 0.2822 0.9407
vn 0.1881 0.2822 0.9407
f 1//1 4//4 2//2
f 1//1 3//3 4//4
f 5//5 6//6 8//8
f 5//5 8//8 7//7
f 1//1 2//2 6//6
f 1//1 6//6 5//5
f 3//3 8//8 4//4
f 3//3 7//7 8//8
f 1//1 7//7 3//3
f 1//1 5//5 7//7
f 2//2 4//4 8//8
f 2//2 8//8 6//6
